<?xml version="1.0" encoding="utf-8"?>
<!-- Generator: Adobe Illustrator 25.0.0, SVG Export Plug-In . SVG Version: 6.00 Build 0)  -->
<svg version="1.1" id="Layer_1" xmlns="http://www.w3.org/2000/svg" xmlns:xlink="http://www.w3.org/1999/xlink" x="0px" y="0px"
	 width="122.9px" height="84.9px" viewBox="0 0 122.9 84.9" style="enable-background:new 0 0 122.9 84.9;" xml:space="preserve">
<path d="M27.5,27.2h15.3l12.6-12.8c0.9-0.9,2.4-0.9,3.4,0c0.4,0.5,0.7,1.1,0.7,1.7l0,0v52.7c0,1.3-1.1,2.4-2.4,2.4
	c-0.6,0-1.3-0.3-1.7-0.7L42.9,60.3H27.5c-4.2,0-7.6-3.4-7.7-7.7V34.8C19.8,30.6,23.3,27.2,27.5,27.2z M70.4,35.1
	c-0.3-1.2,0.3-2.4,1.5-2.8c1.1-0.3,2.3,0.3,2.7,1.4c0.8,2.3,1.1,5.9,1.1,9.3c-0.1,3.4-0.5,6.6-1.5,8.5c-0.5,1.1-1.9,1.6-3,1
	c-1.1-0.5-1.6-1.9-1-3c0.7-1.4,1-3.9,1-6.6C71.4,40.3,71.1,37.6,70.4,35.1L70.4,35.1z M82,26.7c-0.5-1.2,0.1-2.5,1.2-2.9
	c1.2-0.5,2.5,0.1,2.9,1.2c2.1,5,3.2,11.3,3.3,17.6c0.1,6.3-0.8,12.4-2.8,17.3c-0.5,1.2-1.8,1.7-2.9,1.2c-1.2-0.5-1.7-1.8-1.2-2.9
	c1.8-4.4,2.6-9.9,2.5-15.6C84.9,37,83.9,31.2,82,26.7L82,26.7z M93.2,19.6c-0.5-1.1-0.1-2.5,1.1-3s2.5-0.1,3,1.1
	c3.7,8,5.7,16.6,5.7,25.4c0.1,8.5-1.7,17-5.4,24.2c-0.5,1.1-1.8,1.6-3,1.1c-1.1-0.5-1.6-1.8-1.1-3c0-0.1,0.1-0.1,0.1-0.2
	c3.4-6.6,5-14.3,4.9-22.2C98.5,35,96.7,27,93.2,19.6L93.2,19.6z"/>
</svg>
